<svg width="22" height="22" viewBox="0 0 22 22" fill="none" xmlns="http://www.w3.org/2000/svg">
<g clip-path="url(#clip0_2_161)">
<path d="M19.7367 10.9948C19.7367 11.4348 19.7074 11.8747 19.6487 12.3124C19.6622 12.2132 19.6758 12.1116 19.6893 12.0124C19.572 12.8788 19.3418 13.7271 19.0011 14.5326C19.0395 14.4423 19.0779 14.3521 19.114 14.2641C18.7845 15.0425 18.3559 15.7735 17.8414 16.4436C17.9001 16.3669 17.9588 16.2924 18.0174 16.2157C17.4985 16.888 16.8938 17.4904 16.2237 18.0094C16.3004 17.9507 16.3749 17.8921 16.4516 17.8334C15.7815 18.3478 15.0505 18.7765 14.2721 19.1059C14.3623 19.0676 14.4526 19.0292 14.5406 18.9931C13.7351 19.3315 12.8868 19.5639 12.0204 19.6813C12.1197 19.6677 12.2212 19.6542 12.3205 19.6407C11.4473 19.7557 10.5606 19.7557 9.68522 19.6407C9.78449 19.6542 9.88602 19.6677 9.98529 19.6813C9.1189 19.5639 8.27059 19.3338 7.4651 18.9931C7.55535 19.0315 7.6456 19.0698 7.73359 19.1059C6.9552 18.7765 6.22418 18.3478 5.55409 17.8334C5.6308 17.8921 5.70526 17.9507 5.78197 18.0094C5.10961 17.4905 4.50723 16.8858 3.98826 16.2157C4.04692 16.2924 4.10559 16.3669 4.16424 16.4436C3.64982 15.7735 3.22116 15.0425 2.89173 14.2641C2.93009 14.3543 2.96844 14.4446 3.00454 14.5326C2.66611 13.7271 2.43372 12.8788 2.31639 12.0124C2.32992 12.1116 2.34346 12.2132 2.357 12.3124C2.24193 11.4393 2.24193 10.5526 2.357 9.67719C2.34346 9.77646 2.32992 9.87799 2.31639 9.97726C2.43371 9.11088 2.66384 8.26256 3.00454 7.45707C2.96619 7.54732 2.92783 7.63757 2.89173 7.72556C3.22114 6.94717 3.64982 6.21615 4.16424 5.54606C4.10558 5.62278 4.04692 5.69723 3.98826 5.77394C4.50718 5.10158 5.11184 4.4992 5.78197 3.98023C5.70526 4.03889 5.6308 4.09756 5.55409 4.15622C6.22418 3.64179 6.9552 3.21313 7.73359 2.8837C7.64334 2.92206 7.55309 2.96041 7.4651 2.99651C8.27055 2.65808 9.1189 2.42569 9.98529 2.30836C9.88602 2.32189 9.78449 2.33543 9.68522 2.34897C10.5584 2.2339 11.4451 2.2339 12.3205 2.34897C12.2212 2.33543 12.1197 2.32189 12.0204 2.30836C12.8868 2.42568 13.7351 2.65581 14.5406 2.99651C14.4503 2.95816 14.3601 2.9198 14.2721 2.8837C15.0505 3.21311 15.7815 3.64179 16.4516 4.15622C16.3749 4.09755 16.3004 4.03889 16.2237 3.98023C16.8961 4.49916 17.4985 5.10381 18.0174 5.77394C17.9588 5.69723 17.9001 5.62277 17.8414 5.54606C18.3559 6.21615 18.7845 6.94717 19.114 7.72556C19.0756 7.63531 19.0372 7.54506 19.0011 7.45707C19.3396 8.26252 19.572 9.11088 19.6893 9.97726C19.6758 9.87799 19.6622 9.77646 19.6487 9.67719C19.7074 10.1149 19.7367 10.5548 19.7367 10.9948C19.7367 11.2836 19.863 11.5882 20.0661 11.7935C20.2624 11.9898 20.5827 12.1365 20.8648 12.1229C21.1558 12.1094 21.4582 12.0146 21.6635 11.7935C21.8665 11.5724 21.9951 11.3017 21.9929 10.9948C21.9906 9.86672 21.8214 8.72057 21.4717 7.64663C21.1332 6.60424 20.6482 5.598 20.0096 4.70455C19.6712 4.22849 19.3034 3.77046 18.8973 3.35084C18.4889 2.92891 18.0445 2.55665 17.5774 2.20016C16.7066 1.5323 15.7341 1.02917 14.7076 0.650152C13.6516 0.262085 12.5213 0.0590295 11.3999 0.0138949C10.2628 -0.0312314 9.09862 0.108657 8.00433 0.420015C6.95518 0.717837 5.93086 1.1781 5.01934 1.77826C4.11686 2.37165 3.2843 3.09137 2.59619 3.92393C2.22166 4.37969 1.86743 4.85574 1.56511 5.36114C1.26052 5.8688 1.01458 6.40352 0.78899 6.95178C0.362563 7.99189 0.130165 9.09967 0.0444344 10.2188C-0.0435574 11.3537 0.0647406 12.5179 0.330973 13.6234C0.590439 14.6906 1.02363 15.7352 1.59445 16.6738C2.15397 17.5943 2.85566 18.4517 3.66115 19.1669C4.47341 19.8867 5.38266 20.5071 6.3731 20.9538C6.91459 21.1998 7.47189 21.4164 8.04494 21.5766C8.63156 21.7413 9.23172 21.8405 9.83638 21.9105C10.9803 22.0459 12.1445 21.9692 13.2703 21.7413C14.3465 21.5224 15.4002 21.1185 16.3591 20.5838C17.2999 20.0581 18.1776 19.3813 18.9221 18.6006C19.6734 17.8155 20.3232 16.913 20.8061 15.9405C21.3002 14.9478 21.6634 13.8874 21.8304 12.7909C21.9206 12.193 21.9838 11.5951 21.9838 10.9904C21.9838 10.7016 21.8574 10.397 21.6544 10.1917C21.4581 9.99541 21.1377 9.84875 20.8557 9.86229C20.5646 9.87583 20.2623 9.97059 20.057 10.1917C19.8652 10.4173 19.7366 10.6881 19.7366 10.9949L19.7367 10.9948Z" fill="black"/>
<path d="M11.0052 17.9532C11.294 17.9532 11.5986 17.8269 11.8039 17.6238C12.0002 17.4275 12.1468 17.1071 12.1333 16.8251C12.1197 16.5341 12.025 16.2317 11.8039 16.0264C11.5828 15.8234 11.312 15.697 11.0052 15.697C10.7164 15.697 10.4118 15.8234 10.2065 16.0264C10.0102 16.2227 9.86355 16.5431 9.87709 16.8251C9.89062 17.1162 9.98539 17.4185 10.2065 17.6238C10.4276 17.8269 10.7006 17.9532 11.0052 17.9532Z" fill="black"/>
<path d="M8.8165 8.47909C8.8165 8.33244 8.82553 8.18804 8.84583 8.0414C8.8323 8.14067 8.81876 8.24221 8.80522 8.34148C8.84583 8.05043 8.92255 7.76616 9.03535 7.49539C8.997 7.58564 8.95864 7.67589 8.92254 7.76388C9.03535 7.4999 9.17975 7.25172 9.35347 7.02382C9.2948 7.10053 9.23614 7.17499 9.17748 7.2517C9.35347 7.02607 9.55427 6.82527 9.77991 6.64927C9.7032 6.70793 9.62874 6.7666 9.55203 6.82525C9.77991 6.65153 10.0281 6.50713 10.2921 6.39433C10.2018 6.43269 10.1116 6.47104 10.0236 6.50714C10.2943 6.39433 10.5786 6.31762 10.8697 6.27701C10.7704 6.29055 10.6689 6.30408 10.5696 6.31762C10.8607 6.28152 11.154 6.28152 11.445 6.31762C11.3458 6.30408 11.2442 6.29055 11.145 6.27701C11.436 6.31762 11.7203 6.39208 11.9933 6.50488C11.903 6.46653 11.8128 6.42817 11.7248 6.39207C11.9888 6.50489 12.2369 6.64928 12.4648 6.823C12.3881 6.76433 12.3137 6.70567 12.237 6.64701C12.4626 6.823 12.6634 7.0238 12.8394 7.24944C12.7807 7.17273 12.7221 7.09827 12.6634 7.02156C12.8371 7.24944 12.9815 7.49762 13.0943 7.76162C13.056 7.67137 13.0176 7.58113 12.9815 7.49313C13.0943 7.76614 13.171 8.04816 13.2094 8.34145C13.1959 8.24218 13.1823 8.14065 13.1688 8.04137C13.2049 8.33243 13.2049 8.62573 13.1688 8.91453C13.1823 8.81525 13.1959 8.71372 13.2094 8.61445C13.1688 8.9055 13.0921 9.18977 12.9793 9.46277C13.0176 9.37252 13.056 9.28227 13.0921 9.19428C12.9793 9.45825 12.8349 9.70643 12.6589 9.93656C12.7175 9.85985 12.7762 9.7854 12.8349 9.70869C12.6589 9.93431 12.4581 10.1351 12.2324 10.3111C12.3092 10.2525 12.3836 10.1938 12.4603 10.1351C12.2347 10.3066 11.991 10.4465 11.7338 10.5616C11.4044 10.7082 11.0953 10.9383 10.8404 11.191C10.2493 11.7799 9.91987 12.5719 9.8815 13.4021C9.87473 13.5669 9.87925 13.7316 9.87925 13.8963C9.87925 14.1851 10.0056 14.4897 10.2087 14.695C10.4049 14.8912 10.7253 15.0379 11.0073 15.0244C11.2984 15.0108 11.6007 14.9161 11.806 14.695C12.0091 14.4738 12.1354 14.2031 12.1354 13.8963C12.1354 13.6661 12.1264 13.436 12.1557 13.2081C12.1422 13.3074 12.1287 13.4089 12.1151 13.5082C12.1422 13.3277 12.1896 13.154 12.2595 12.9847C12.2212 13.075 12.1828 13.1652 12.1467 13.2532C12.2212 13.0772 12.3182 12.9148 12.4355 12.7614C12.3768 12.8381 12.3182 12.9125 12.2595 12.9892C12.3723 12.8471 12.5009 12.7207 12.6431 12.6079C12.5664 12.6666 12.4919 12.7253 12.4152 12.7839C12.6341 12.617 12.88 12.5199 13.1214 12.3936C13.4215 12.2357 13.6967 12.0281 13.9539 11.8092C14.4074 11.4234 14.791 10.9113 15.0302 10.3653C15.17 10.0449 15.2964 9.72674 15.3596 9.38154C15.4227 9.03409 15.4679 8.67763 15.4498 8.3234C15.4182 7.63751 15.2445 6.99222 14.9286 6.38529C14.3668 5.30681 13.3064 4.48106 12.1332 4.17874C11.454 4.00501 10.7704 4.00275 10.0845 4.13361C9.75739 4.19453 9.45732 4.31636 9.15045 4.44722C8.92258 4.54424 8.706 4.66382 8.50516 4.80822C7.93207 5.21885 7.43344 5.72873 7.09955 6.35822C6.7521 7.01251 6.56256 7.73677 6.56033 8.48132C6.55808 8.77012 6.68668 9.07471 6.88974 9.28C7.08603 9.47629 7.40639 9.62295 7.68842 9.60941C8.30211 9.58008 8.81427 9.11306 8.81654 8.47907L8.8165 8.47909Z" fill="black"/>
</g>
<defs>
<clipPath id="clip0_2_161">
<rect width="22" height="22" fill="white"/>
</clipPath>
</defs>
</svg>
