<svg width="22" height="22" viewBox="0 0 22 22" fill="none" xmlns="http://www.w3.org/2000/svg">
<g clip-path="url(#clip0_2_13)">
<path d="M10.9864 0.0308838C17.0499 0.0308838 21.9689 4.94967 21.9689 11.0134C21.9689 17.0742 17.047 21.996 10.9864 21.996C4.92287 21.996 0.0038147 17.0772 0.0038147 11.0134C0.0038147 4.94994 4.9196 0.0308838 10.9864 0.0308838ZM10.9864 8.60461C10.3879 8.60461 9.9055 8.12221 9.9055 7.52375C9.9055 6.92525 10.3879 6.44289 10.9864 6.44289C11.5819 6.44289 12.0672 6.92529 12.0672 7.52375C12.0672 8.12225 11.5818 8.60461 10.9864 8.60461ZM11.6519 15.5874C11.6519 16.4606 10.3208 16.4606 10.3208 15.5874V10.4884C10.3208 9.61514 11.6519 9.61514 11.6519 10.4884V15.5874ZM10.9864 1.36233C5.65844 1.36233 1.33472 5.68584 1.33472 11.014C1.33472 16.3451 5.65501 20.6656 10.9864 20.6656C16.3143 20.6656 20.638 16.3453 20.638 11.014C20.638 5.68606 16.3145 1.36233 10.9864 1.36233Z" fill="black"/>
</g>
<defs>
<clipPath id="clip0_2_13">
<rect width="22" height="22" fill="white"/>
</clipPath>
</defs>
</svg>
