<svg width="22" height="16" viewBox="0 0 22 16" fill="none" xmlns="http://www.w3.org/2000/svg">
<g clip-path="url(#clip0_2_78)">
<path d="M5.41386 4.67554H0.601544C0.277646 4.67554 4.57764e-05 5.1034 4.57764e-05 5.60268V15.053C4.57764e-05 15.5523 0.27763 15.9802 0.601544 15.9802H5.41386C5.73776 15.9802 6.01536 15.5523 6.01536 15.053L6.01552 5.60268C6.01552 5.06761 5.76098 4.67554 5.41386 4.67554Z" fill="black"/>
<path d="M13.3958 0.00385256H8.58351C8.25961 0.00385256 7.98201 0.431717 7.98201 0.930993V15.0174C7.98201 15.5166 8.25959 15.9445 8.58351 15.9445H13.3958C13.7197 15.9445 13.9973 15.5166 13.9973 15.0174V0.930993C13.9973 0.431742 13.7428 0.00366211 13.3957 0.00366211L13.3958 0.00385256Z" fill="black"/>
<path d="M21.3778 6.99353H16.5655C16.2416 6.99353 15.964 7.42139 15.964 7.92067V15.053C15.964 15.5523 16.2416 15.9801 16.5655 15.9801H21.3778C21.7017 15.9801 21.9793 15.5523 21.9793 15.053V7.92067C21.9793 7.38585 21.7017 6.99353 21.3778 6.99353Z" fill="black"/>
</g>
<defs>
<clipPath id="clip0_2_78">
<rect width="22" height="16" fill="white"/>
</clipPath>
</defs>
</svg>
