<?xml version="1.0" encoding="UTF-8"?>
<svg width="700pt" height="700pt" version="1.1" viewBox="0 0 700 700" xmlns="http://www.w3.org/2000/svg">
 <path d="m163.52 169.39c32.621 8.3984 62.328 22.961 88.734 41.746 6.4688 4.6211 12.738 9.4648 18.703 14.59 1.2891 1.0625 2.4648 2.2383 3.7227 3.332 18.621 16.547 34.695 35.559 48.105 56.699 1.625 2.5781 3.332 5.0977 4.8711 7.7305 2.7461 4.6758 5.3477 9.3789 7.8125 14.137 3.9766 7.8398 7.7266 15.848 10.949 24.137 1.1172 2.8867 2.043 5.7969 3.0781 8.707 3.3906 9.6914 6.4961 19.547 8.793 29.738 0.085938 0.36328 0.19531 0.69922 0.28125 1.0352-2.9961 5.7695-5.8242 11.648-8.4844 17.555-35.617-80.441-102.98-143.89-188.33-174.07-0.69922-15.094-0.085937-30.27 1.7617-45.332m374.5 45.445c-54.039 19.32-102.25 53.031-139.3 96.766-0.085938-0.22266-0.19922-0.41797-0.30859-0.67188-4.5352-11.676-9.5508-23.098-15.344-34.047 1.1172-1.6523 2.1836-3.3594 3.3594-4.957 2.3242-3.2188 4.7305-6.3828 7.1953-9.4922 2.8555-3.582 5.8242-7.0547 8.8477-10.5 2.8281-3.1914 5.6562-6.3828 8.625-9.4648 3.0234-3.1328 6.2422-6.1016 9.4648-9.0977 3.1328-2.9141 6.1875-5.9375 9.4609-8.707 3.8359-3.25 7.8984-6.2461 11.93-9.2969 28-21.168 59.922-37.016 94.332-45.949 1.8477 15.066 2.4375 30.27 1.7344 45.418m119.98-18.844c-21.867 0-43.203 2.2656-63.922 6.2695 0-20.328-1.6797-40.629-5.4883-60.676v-0.054688l-2.1016-10.809c-2.9375-15.203-17.695-25.117-32.73-22.23l-10.781 2.043c-33.234 6.3281-64.902 17.863-94.109 33.738-16.266-40.348-40.348-77.363-71.258-108.27l-7.7852-7.7852c-10.5-10.527-29.148-10.527-39.648 0l-7.7266 7.7539c-30.883 30.887-54.938 67.816-71.23 108.05-28.953-15.625-60.621-27.051-94.332-33.488l-10.836-2.043c-7.2812-1.3438-14.84 0.19531-21 4.3398-6.1602 4.1992-10.363 10.637-11.762 17.945l-2.043 10.809c-3.8086 20.078-5.5156 40.348-5.5469 60.648-20.664-3.9766-41.914-6.2422-63.699-6.2422-15.484 0-28 12.543-28 28 0 185.27 150.73 336 336 336 185.28 0 336-150.73 336-336 0-15.457-12.516-28-28-28" fill-rule="evenodd"/>
</svg>
